<svg xmlns="http://www.w3.org/2000/svg" viewBox="0 0 489.19 127.56"><defs><style>.cls-1,.cls-2{fill:#2e2e2e;}.cls-1{stroke:#000;stroke-miterlimit:10;}.cls-3{fill:#167ed2;}.cls-4{fill:#549d6e;}.cls-5{fill:#fff;}</style></defs><title>logo</title><g id="Layer_2" data-name="Layer 2"><g id="svg4327"><path class="cls-1" d="M191,30.39a9.15,9.15,0,0,0-17.09-2.72,11.15,11.15,0,0,0-1.15,5.27,18.76,18.76,0,0,0,.62,3.83A8.58,8.58,0,0,0,181.48,43a8.71,8.71,0,0,0,8.89-5.6A12.27,12.27,0,0,0,191,30.39Zm-2.27,7.49a7.08,7.08,0,0,1-7.08,4,7.27,7.27,0,0,1-6.79-4.57,9.54,9.54,0,0,1-.9-4.44,10.25,10.25,0,0,1,2-6.3A7.77,7.77,0,0,1,188.73,28,10.37,10.37,0,0,1,188.68,37.88Z"/><path class="cls-1" d="M230.51,42.49a.12.12,0,0,1-.08,0c-1.16.08-1.16.08-1.57-1-2.14-5.51-4.28-11-6.38-16.51,0-.12-.12-.24-.2-.49a2.57,2.57,0,0,0-.25.58c-2.22,5.51-4.41,11-6.59,16.51-.41,1-.41,1-1.64.94.08-.2.12-.41.2-.62,2.43-6.05,4.9-12.1,7.33-18.15.21-.54.53-.45.95-.49a.63.63,0,0,1,.78.45c2.39,6.09,4.86,12.18,7.29,18.28a3.11,3.11,0,0,1,.16.45"/><polyline class="cls-1" points="202.97 24.34 196.13 24.34 196.13 23.35 210.96 23.35 210.96 24.34 204.16 24.34 204.16 42.53 202.97 42.53 202.97 24.34"/><rect class="cls-1" x="163.04" y="23.31" width="1.11" height="19.22"/><path class="cls-2" d="M193.68,91.08V96h-6.17v8.75h-6V96h-19V91.38l20-28.89h5V91.08Zm-25.17,0h13V72.38Z"/><path class="cls-2" d="M221.49,104.74V62.49h27.44v5H227.54v13.3h20.2v5h-20.2v14h21.39v5Z"/><path class="cls-2" d="M303.4,104.74l-9.74-28.95c-.94-2.93-1.56-5.43-2.18-8h-.19c-.63,2.62-1.25,5.18-2.06,7.93l-9.55,29H274l14.29-42.06h6.49l14.48,42.06Z"/><path class="cls-2" d="M369.27,104.74h-6.83l-7.2-13.54a7.24,7.24,0,0,0-2.84-3,9.45,9.45,0,0,0-4.34-.87h-7v17.44H335V62.49h18q7,0,10.7,3.12t3.68,9.11a11.65,11.65,0,0,1-2.73,8,12.64,12.64,0,0,1-7.76,4A9,9,0,0,1,362,91.32Zm-17-22.41c3.12,0,5.42-.61,6.92-1.83s2.25-3.1,2.25-5.66-.74-4.42-2.22-5.61-3.79-1.76-6.95-1.76H341V82.33Z"/><path class="cls-2" d="M406.19,104.74V67.65H391.92V62.49h34.82v5.16H412.42v37.09Z"/><path class="cls-2" d="M483.08,62.49h6.11v42.25h-6.11V85.81H459.47v18.93h-6.12V62.49h6.12V80.77h23.61Z"/><path id="path3214" class="cls-3" d="M127.56,63.78A63.78,63.78,0,1,1,63.78,0,63.79,63.79,0,0,1,127.56,63.78Z"/><path id="path4144" class="cls-4" d="M124.93,54.23l-1.14,2.21A38.32,38.32,0,0,0,120.27,53l-2.7.4-2.47-2.79V54l2.11,1.6,1.41,1.6,1.88-2.13,1.41,2.66v2.66l-2.12,2.39-3.87,2.66L113,68.41l-1.88-2.14.94-2.39-1.87-2.12L107,55l-2.7-3.06-.7.8,1.06,3.85,2,2.26a93.73,93.73,0,0,0,3.76,9.58,53.57,53.57,0,0,0,6.81-.54v1.86l-2.82,6.92-2.58,2.92-2.11,4.52v7.44l.7,2.93-1.17,1.33-2.59,1.59-2.7,2.26,2.23,2.53-3,2.66.59,1.72-4.59,5.19H96.07l-2.58,1.6H91.84v-2.13l-.7-4.26c-.91-2.67-1.85-5.32-2.82-8,0-2,.12-3.89.24-5.85l1.17-2.66-1.64-3.19.12-4.39L86,80.37l1.12-3.66-1.82-2.06H82.1L81,73.46l-3.17,2L76.58,74l-2.94,2.52-6-6.78L65.3,64.15,67.42,61l-1.18-1.33,2.59-6.12c2.12-2.63,4.33-5.16,6.57-7.7l4-1.07,4.46-.53,3,.8,4.35,4.38,1.53-1.72,2.11-.27,4,1.33H102l2.11-1.86.94-1.33-2.12-1.33L99.36,44a35.05,35.05,0,0,0-3-4l-1.18.53L94.66,44l-2.11-2.39-.47-2.67L89.73,37h-.94l2.35,2.65-.94,2.4-1.88.53,1.18-2.4-2.12-1.06L85.51,37,82,37.83l-.47,1.06L79.4,40.22l-1.18,2.93-2.93,1.46L74,43.15h-1.4V38.36l3-1.59H78l-.47-1.86-1.88-1.86,3.17-.67,1.76-2L82,28h2.58l-.7-1.85,1.65-1.07V27.2L89,28l3.52-2.92.23-1.33,3.06-2.12a21.48,21.48,0,0,0-3.29.53v-2.4l1.17-2.66H92.55L90,19.49l-.71,1.33L90,22.68l-1.18,3.19L86.91,24.8l-1.64-1.86L82.68,24.8l-.94-4.25,4.47-2.92V16L89,14.17l4.46-1.06,3.05,1.06,5.64,1.06-1.41,1.6h-3l3,3.19,2.35-2.66.51-.91C113.74,25.72,122.62,38,124.93,54.23Z"/><path id="path4160" class="cls-4" d="M70,6.46,63.86,4.07l-7,.8-8.7,2.39L46.48,8.85l5.4,3.72V14.7l-2.11,2.13,2.82,5.58,1.87-1.06,2.36-3.72a81.9,81.9,0,0,0,10.33-4L70,6.46"/><path id="path4184" class="cls-4" d="M42.49,78.77l-1.88-3.72-3.53-.8-1.88-5-4.69.53-4-2.92-4.23,3.72v.59c-1.28-.37-2.86-.42-4-1.12l-.94-2.66V64.42l-2.81.26q.35-2.79.7-5.58H13.6L12,61.23,10.31,62,8,60.7l-.24-2.93.47-3.19,3.53-2.66h2.81L15,50.33l3.53.79,2.58,3.2L21.58,49,26,45.27l1.65-4L31,40l1.88-2.66,4.22-.8,2.12-3.19H32.86l4-1.86h2.81l4-1.33.47-1.59L42.72,27.2l-1.64-.54.47-1.59-1.18-2.39-2.82,1.06L38,21.61l-3.29-1.86-2.58,4.52.23,1.6L29.8,26.93l-1.64,3.46-.71-3.19L23,25.34l-.71-2.4,5.88-3.45,2.58-2.4L31,14.17l-1.41-.8-1.88-.26L26.51,16s-2.27.18-2.77.3c-8.33,6.92-19.59,19.6-22.2,43.2a35.74,35.74,0,0,0,2.19,3.82l4.93,2.92,4.93,1.34,2.12,2.66L19,72.66l1.88-.27,1.4.64v.43l-1.87,5.05L19,80.63l.47,1.07-1.18,4,4.23,7.71,4.23,3.73,1.88,2.65-.24,5.59,1.41,3.19-1.41,6.11s-.11,0,.07.58,7.53,4.68,8,4.34l.87-.67-.47-1.32,1.88-1.86.7-1.86,3.06-1.07L44.83,107l-.7-1.59L45.77,103l3.53-.8,1.88-4.26-.47-5.31,2.81-4,.47-4c-3.85-1.91-7.68-3.88-11.5-5.85"/><path id="path4152" class="cls-4" d="M67.38,17.36,67.15,19,68.79,20l2.82-1.86-1.41-1.6-1.88,1.07-.94-.27"/><path id="path4168" class="cls-4" d="M76.31,28.79l-.94-2.39-1.65.53.48,2.92,2.11-1.06"/><path id="path4176" class="cls-4" d="M77.25,28.26l-.47,3.19,2.58-.53,1.88-1.86-1.64-1.6C79,26,78.41,24.62,77.72,23.21H76.31V24.8l.94,1.07v2.39"/><path id="path4192" class="cls-4" d="M37.32,18.42,39.67,20h1.88V18.16L39.2,17.09l-1.88,1.33"/><path id="path4200" class="cls-4" d="M31.21,16.3,30,19.22h2.35l1.17-2.66c1-.71,2-1.44,3-2.12l2.35.79,4.7,3.19L46,16.3l-2.58-1.07-1.18-2.39-4.46-.53L37.55,11l-2.11.53-.94,1.86L33.32,11,32.86,12l.23,2.66-1.88,1.6"/><path id="path4228" class="cls-4" d="M39.67,9.65l1.17-1.06,2.35-.53a37.57,37.57,0,0,1,4.93-1.87L47.19,4.6l-3,.43L42.72,6.46l-2.36.34-2.1,1-1,.49-.63.84,3.06.53"/><path id="path4236" class="cls-4" d="M43.66,34.91l1.41-2.13L43,31.19l.7,3.72"/><path id="path124" class="cls-5" d="M90.25,24.6a5.39,5.39,0,1,1-5.39-5.39A5.39,5.39,0,0,1,90.25,24.6Z"/><circle id="circle126" class="cls-5" cx="86.37" cy="38.81" r="4.57"/><circle id="circle128" class="cls-5" cx="84.95" cy="50.78" r="3.86"/><path id="path130" class="cls-5" d="M84.72,60.47a3.3,3.3,0,1,1-3.29-3.3A3.29,3.29,0,0,1,84.72,60.47Z"/><path id="path132" class="cls-5" d="M79.5,67.78A2.83,2.83,0,1,1,76.67,65,2.84,2.84,0,0,1,79.5,67.78Z"/><path id="path134" class="cls-5" d="M73.79,73a2.43,2.43,0,1,1-2.43-2.43A2.43,2.43,0,0,1,73.79,73Z"/><path id="path136" class="cls-5" d="M102.87,41.53A4.58,4.58,0,1,1,99.45,36a4.6,4.6,0,0,1,3.42,5.51Z"/><path id="path138" class="cls-5" d="M100.68,53.42a3.88,3.88,0,1,1-2.9-4.66,3.87,3.87,0,0,1,2.9,4.66Z"/><path id="path140" class="cls-5" d="M96.6,62.92A3.28,3.28,0,1,1,94.16,59a3.27,3.27,0,0,1,2.44,3.94Z"/><path id="path142" class="cls-5" d="M91.35,70.14a2.8,2.8,0,1,1-2.1-3.36A2.8,2.8,0,0,1,91.35,70.14Z"/><path id="path144" class="cls-5" d="M85.61,75.19a2.41,2.41,0,1,1-1.8-2.89A2.41,2.41,0,0,1,85.61,75.19Z"/><path id="path146" class="cls-5" d="M79.87,78.38a2.07,2.07,0,1,1-1.54-2.49,2.06,2.06,0,0,1,1.54,2.49Z"/><path id="path148" class="cls-5" d="M109.93,57.76a3.9,3.9,0,1,1-1.82-5.21A3.91,3.91,0,0,1,109.93,57.76Z"/><path id="path150" class="cls-5" d="M105.86,67.17a3.32,3.32,0,1,1-1.54-4.44A3.31,3.31,0,0,1,105.86,67.17Z"/><path id="path152" class="cls-5" d="M100.75,74.3a2.87,2.87,0,1,1-1.33-3.83A2.86,2.86,0,0,1,100.75,74.3Z"/><path id="path154" class="cls-5" d="M95.06,79.34A2.49,2.49,0,1,1,93.9,76,2.5,2.5,0,0,1,95.06,79.34Z"/><path id="path156" class="cls-5" d="M89.33,82.45a2.13,2.13,0,1,1-1-2.84,2.13,2.13,0,0,1,1,2.84Z"/><path id="path158" class="cls-5" d="M83.94,84a1.8,1.8,0,1,1-.84-2.41A1.81,1.81,0,0,1,83.94,84Z"/><path id="path160" class="cls-5" d="M88.32,104.63a5.39,5.39,0,1,1,7.37-2A5.39,5.39,0,0,1,88.32,104.63Z"/><path id="path162" class="cls-5" d="M75.67,98.12a4.56,4.56,0,1,1,6.23-1.67,4.55,4.55,0,0,1-6.23,1.67Z"/><path id="path164" class="cls-5" d="M66.36,90.31a3.86,3.86,0,1,1,5.27-1.42A3.85,3.85,0,0,1,66.36,90.31Z"/><path id="path166" class="cls-5" d="M60,81.94a3.3,3.3,0,1,1,4.51-1.22A3.32,3.32,0,0,1,60,81.94Z"/><path id="path168" class="cls-5" d="M56.27,73.76a2.83,2.83,0,1,1,3.87-1,2.84,2.84,0,0,1-3.87,1Z"/><path id="path170" class="cls-5" d="M54.63,66.22A2.43,2.43,0,1,1,58,65.33,2.44,2.44,0,0,1,54.63,66.22Z"/><circle id="circle172" class="cls-5" cx="70.49" cy="103.77" r="4.58"/><path id="path174" class="cls-5" d="M58.14,99.28a3.88,3.88,0,1,1,5.49-.18,3.9,3.9,0,0,1-5.49.18Z"/><path id="path176" class="cls-5" d="M52,91a3.28,3.28,0,1,1,4.64-.16A3.29,3.29,0,0,1,52,91Z"/><path id="path178" class="cls-5" d="M48.31,82.84a2.81,2.81,0,1,1,4-.13A2.81,2.81,0,0,1,48.31,82.84Z"/><path id="path180" class="cls-5" d="M46.81,75.35a2.41,2.41,0,1,1,3.4-.11A2.4,2.4,0,0,1,46.81,75.35Z"/><path id="path182" class="cls-5" d="M46.91,68.79a2.07,2.07,0,1,1,2.92-.1A2.06,2.06,0,0,1,46.91,68.79Z"/><path id="path184" class="cls-5" d="M49.76,105.12a3.91,3.91,0,1,1,5.43,1,3.91,3.91,0,0,1-5.43-1Z"/><path id="path186" class="cls-5" d="M43.65,96.91a3.32,3.32,0,1,1,4.61.87,3.32,3.32,0,0,1-4.61-.87Z"/><path id="path188" class="cls-5" d="M40,88.91a2.87,2.87,0,1,1,4,.76A2.85,2.85,0,0,1,40,88.91Z"/><path id="path190" class="cls-5" d="M38.49,81.47a2.49,2.49,0,1,1,3.46.66,2.49,2.49,0,0,1-3.46-.66Z"/><path id="path192" class="cls-5" d="M38.66,75a2.13,2.13,0,1,1,3.52-2.39A2.13,2.13,0,0,1,38.66,75Z"/><path id="path194" class="cls-5" d="M40,69.5A1.81,1.81,0,1,1,42.5,70,1.81,1.81,0,0,1,40,69.5Z"/><path id="path196" class="cls-5" d="M19.94,63a5.39,5.39,0,1,1-2,7.36A5.38,5.38,0,0,1,19.94,63Z"/><path id="path198" class="cls-5" d="M31.91,55.27a4.57,4.57,0,1,1-1.67,6.24,4.57,4.57,0,0,1,1.67-6.24Z"/><path id="path200" class="cls-5" d="M43.34,51.12a3.86,3.86,0,1,1-1.42,5.28,3.86,3.86,0,0,1,1.42-5.28Z"/><path id="path202" class="cls-5" d="M53.77,49.83a3.3,3.3,0,1,1-1.21,4.5,3.29,3.29,0,0,1,1.21-4.5Z"/><path id="path204" class="cls-5" d="M62.72,50.69a2.83,2.83,0,1,1-1,3.87,2.84,2.84,0,0,1,1-3.87Z"/><path id="path206" class="cls-5" d="M70.07,53.05a2.43,2.43,0,1,1-.89,3.32,2.43,2.43,0,0,1,.89-3.32Z"/><path id="path208" class="cls-5" d="M28.3,43.57a4.58,4.58,0,1,1-3.06,5.71A4.58,4.58,0,0,1,28.3,43.57Z"/><path id="path210" class="cls-5" d="M39.7,39.53a3.88,3.88,0,1,1-2.6,4.83,3.89,3.89,0,0,1,2.6-4.83Z"/><path id="path212" class="cls-5" d="M50,38.31a3.28,3.28,0,1,1-2.19,4.09A3.28,3.28,0,0,1,50,38.31Z"/><path id="path214" class="cls-5" d="M58.85,39.26A2.8,2.8,0,1,1,57,42.75,2.8,2.8,0,0,1,58.85,39.26Z"/><path id="path216" class="cls-5" d="M66.08,41.71a2.41,2.41,0,1,1-1.61,3A2.41,2.41,0,0,1,66.08,41.71Z"/><path id="path218" class="cls-5" d="M71.71,45.08a2.07,2.07,0,1,1-1.38,2.58,2.07,2.07,0,0,1,1.38-2.58Z"/><path id="path220" class="cls-5" d="M38.84,29.35a3.9,3.9,0,1,1-3.61,4.17A3.88,3.88,0,0,1,38.84,29.35Z"/><path id="path222" class="cls-5" d="M49,28.17A3.32,3.32,0,1,1,46,31.72,3.32,3.32,0,0,1,49,28.17Z"/><path id="path224" class="cls-5" d="M57.75,29A2.87,2.87,0,1,1,55.1,32.1,2.87,2.87,0,0,1,57.75,29Z"/><path id="path226" class="cls-5" d="M65,31.44a2.49,2.49,0,1,1-2.31,2.67A2.49,2.49,0,0,1,65,31.44Z"/><path id="path228" class="cls-5" d="M70.51,34.85a2.13,2.13,0,1,1-2,2.28,2.13,2.13,0,0,1,2-2.28Z"/><path id="path230" class="cls-5" d="M74.56,38.74a1.8,1.8,0,1,1-1.67,1.93,1.82,1.82,0,0,1,1.67-1.93Z"/></g></g></svg>